<?xml version="1.0" encoding="UTF-8" standalone="no"?>
<svg
   xmlns:dc="http://purl.org/dc/elements/1.1/"
   xmlns:cc="http://creativecommons.org/ns#"
   xmlns:rdf="http://www.w3.org/1999/02/22-rdf-syntax-ns#"
   xmlns:svg="http://www.w3.org/2000/svg"
   xmlns="http://www.w3.org/2000/svg"
   xmlns:xlink="http://www.w3.org/1999/xlink"
   xmlns:sodipodi="http://sodipodi.sourceforge.net/DTD/sodipodi-0.dtd"
   xmlns:inkscape="http://www.inkscape.org/namespaces/inkscape"
   style="font-size:12px;font-style:normal;font-weight:normal;fill:#000000;fill-opacity:1;stroke:#000000;stroke-width:1;stroke-linecap:square;stroke-linejoin:miter;stroke-miterlimit:10;stroke-opacity:1;stroke-dasharray:none;stroke-dashoffset:0;font-family:Dialog"
   id="svg2"
   version="1.1"
   inkscape:version="0.48.4 r9939"
   width="290.5"
   height="110.5"
   sodipodi:docname="ref_model_scheme.pdf">
  <metadata
     id="metadata196">
    <rdf:RDF>
      <cc:Work
         rdf:about="">
        <dc:format>image/svg+xml</dc:format>
        <dc:type
           rdf:resource="http://purl.org/dc/dcmitype/StillImage" />
        <dc:title></dc:title>
      </cc:Work>
    </rdf:RDF>
  </metadata>
  <sodipodi:namedview
     pagecolor="#ffffff"
     bordercolor="#666666"
     borderopacity="1"
     objecttolerance="10"
     gridtolerance="10"
     guidetolerance="10"
     inkscape:pageopacity="0"
     inkscape:pageshadow="2"
     inkscape:window-width="1366"
     inkscape:window-height="744"
     id="namedview194"
     showgrid="false"
     fit-margin-top="0"
     fit-margin-left="0"
     fit-margin-right="0"
     fit-margin-bottom="0"
     inkscape:zoom="0.22425739"
     inkscape:cx="372.29724"
     inkscape:cy="-415.93109"
     inkscape:window-x="0"
     inkscape:window-y="24"
     inkscape:window-maximized="1"
     inkscape:current-layer="svg2" />
  <!--Generated with Batik SVG Generator-->
  <defs
     id="genericDefs">
    <linearGradient
       inkscape:collect="always"
       xlink:href="#linearGradient1"
       id="linearGradient3173"
       gradientUnits="userSpaceOnUse"
       spreadMethod="reflect"
       x1="100"
       y1="110"
       x2="100"
       y2="150" />
    <linearGradient
       inkscape:collect="always"
       xlink:href="#linearGradient1"
       id="linearGradient3175"
       gradientUnits="userSpaceOnUse"
       spreadMethod="reflect"
       x1="100"
       y1="110"
       x2="100"
       y2="150" />
    <linearGradient
       inkscape:collect="always"
       xlink:href="#linearGradient1"
       id="linearGradient3177"
       gradientUnits="userSpaceOnUse"
       spreadMethod="reflect"
       x1="100"
       y1="110"
       x2="100"
       y2="150" />
    <linearGradient
       inkscape:collect="always"
       xlink:href="#linearGradient3"
       id="linearGradient3179"
       gradientUnits="userSpaceOnUse"
       spreadMethod="reflect"
       x1="180"
       y1="110"
       x2="180"
       y2="150" />
    <linearGradient
       inkscape:collect="always"
       xlink:href="#linearGradient3"
       id="linearGradient3181"
       gradientUnits="userSpaceOnUse"
       spreadMethod="reflect"
       x1="180"
       y1="110"
       x2="180"
       y2="150" />
    <linearGradient
       inkscape:collect="always"
       xlink:href="#linearGradient3"
       id="linearGradient3183"
       gradientUnits="userSpaceOnUse"
       spreadMethod="reflect"
       x1="180"
       y1="110"
       x2="180"
       y2="150" />
    <linearGradient
       inkscape:collect="always"
       xlink:href="#linearGradient5"
       id="linearGradient3185"
       gradientUnits="userSpaceOnUse"
       spreadMethod="reflect"
       x1="300"
       y1="110"
       x2="300"
       y2="150" />
    <linearGradient
       inkscape:collect="always"
       xlink:href="#linearGradient5"
       id="linearGradient3187"
       gradientUnits="userSpaceOnUse"
       spreadMethod="reflect"
       x1="300"
       y1="110"
       x2="300"
       y2="150" />
    <linearGradient
       inkscape:collect="always"
       xlink:href="#linearGradient5"
       id="linearGradient3189"
       gradientUnits="userSpaceOnUse"
       spreadMethod="reflect"
       x1="300"
       y1="110"
       x2="300"
       y2="150" />
    <linearGradient
       inkscape:collect="always"
       xlink:href="#linearGradient7"
       id="linearGradient3191"
       gradientUnits="userSpaceOnUse"
       spreadMethod="reflect"
       x1="320"
       y1="40"
       x2="320"
       y2="80" />
    <linearGradient
       inkscape:collect="always"
       xlink:href="#linearGradient7"
       id="linearGradient3193"
       gradientUnits="userSpaceOnUse"
       spreadMethod="reflect"
       x1="320"
       y1="40"
       x2="320"
       y2="80" />
    <linearGradient
       inkscape:collect="always"
       xlink:href="#linearGradient7"
       id="linearGradient3195"
       gradientUnits="userSpaceOnUse"
       spreadMethod="reflect"
       x1="320"
       y1="40"
       x2="320"
       y2="80" />
  </defs>
  <g
     id="g5"
     transform="translate(0.25,0.25)">
    <defs
       id="defs1">
      <linearGradient
         x1="100"
         gradientUnits="userSpaceOnUse"
         x2="100"
         y1="110"
         y2="150"
         id="linearGradient1"
         spreadMethod="reflect">
        <stop
           style="stop-opacity:1; stop-color:rgb(254,254,254);"
           offset="0%"
           id="stop9" />
        <stop
           style="stop-opacity:1; stop-color:white;"
           offset="100%"
           id="stop11" />
      </linearGradient>
      <linearGradient
         x1="100"
         gradientUnits="userSpaceOnUse"
         x2="100"
         y1="110"
         y2="150"
         id="linearGradient2"
         spreadMethod="reflect">
        <stop
           style="stop-opacity:1; stop-color:rgb(254,254,254);"
           offset="0%"
           id="stop14" />
        <stop
           style="stop-opacity:1; stop-color:white;"
           offset="100%"
           id="stop16" />
      </linearGradient>
      <linearGradient
         x1="180"
         gradientUnits="userSpaceOnUse"
         x2="180"
         y1="110"
         y2="150"
         id="linearGradient3"
         spreadMethod="reflect">
        <stop
           style="stop-opacity:1; stop-color:rgb(254,254,254);"
           offset="0%"
           id="stop19" />
        <stop
           style="stop-opacity:1; stop-color:white;"
           offset="100%"
           id="stop21" />
      </linearGradient>
      <linearGradient
         x1="180"
         gradientUnits="userSpaceOnUse"
         x2="180"
         y1="110"
         y2="150"
         id="linearGradient4"
         spreadMethod="reflect">
        <stop
           style="stop-opacity:1; stop-color:rgb(254,254,254);"
           offset="0%"
           id="stop24" />
        <stop
           style="stop-opacity:1; stop-color:white;"
           offset="100%"
           id="stop26" />
      </linearGradient>
      <linearGradient
         x1="300"
         gradientUnits="userSpaceOnUse"
         x2="300"
         y1="110"
         y2="150"
         id="linearGradient5"
         spreadMethod="reflect">
        <stop
           style="stop-opacity:1; stop-color:rgb(254,254,254);"
           offset="0%"
           id="stop29" />
        <stop
           style="stop-opacity:1; stop-color:white;"
           offset="100%"
           id="stop31" />
      </linearGradient>
      <linearGradient
         x1="300"
         gradientUnits="userSpaceOnUse"
         x2="300"
         y1="110"
         y2="150"
         id="linearGradient6"
         spreadMethod="reflect">
        <stop
           style="stop-opacity:1; stop-color:rgb(254,254,254);"
           offset="0%"
           id="stop34" />
        <stop
           style="stop-opacity:1; stop-color:white;"
           offset="100%"
           id="stop36" />
      </linearGradient>
      <linearGradient
         x1="320"
         gradientUnits="userSpaceOnUse"
         x2="320"
         y1="40"
         y2="80"
         id="linearGradient7"
         spreadMethod="reflect">
        <stop
           style="stop-opacity:1; stop-color:rgb(254,254,254);"
           offset="0%"
           id="stop39" />
        <stop
           style="stop-opacity:1; stop-color:white;"
           offset="100%"
           id="stop41" />
      </linearGradient>
      <clipPath
         clipPathUnits="userSpaceOnUse"
         id="clipPath1">
        <path
           d="M 0,0 13,0 13,20 0,20 0,0 z"
           id="path44"
           inkscape:connector-curvature="0" />
      </clipPath>
      <clipPath
         clipPathUnits="userSpaceOnUse"
         id="clipPath2">
        <path
           d="M 0,0 92,0 92,52 0,52 0,0 z"
           id="path47"
           inkscape:connector-curvature="0" />
      </clipPath>
      <clipPath
         clipPathUnits="userSpaceOnUse"
         id="clipPath3">
        <path
           d="M 0,0 85,0 85,34 0,34 0,0 z"
           id="path50"
           inkscape:connector-curvature="0" />
      </clipPath>
      <clipPath
         clipPathUnits="userSpaceOnUse"
         id="clipPath4">
        <path
           d="m 0.8771,32.2836 0,-30.7454 30.7455,0 0,30.7454 -30.7455,0 z"
           id="path53"
           inkscape:connector-curvature="0" />
      </clipPath>
      <clipPath
         clipPathUnits="userSpaceOnUse"
         id="clipPath5">
        <path
           d="m 3.036,28.7506 0,-23.5431 23.5432,0 0,23.5431 -23.5432,0 z"
           id="path56"
           inkscape:connector-curvature="0" />
      </clipPath>
      <clipPath
         clipPathUnits="userSpaceOnUse"
         id="clipPath6">
        <path
           d="m -1.0156,46.4717 0,-48.8118 48.8118,0 0,48.8118 -48.8118,0 z"
           id="path59"
           inkscape:connector-curvature="0" />
      </clipPath>
      <clipPath
         clipPathUnits="userSpaceOnUse"
         id="clipPath7">
        <path
           d="M 0,0 144,0 144,23 0,23 0,0 z"
           id="path62"
           inkscape:connector-curvature="0" />
      </clipPath>
    </defs>
    <g
       style="fill:url(#linearGradient3175);stroke:url(#linearGradient3177)"
       transform="translate(-100,-40)"
       id="g64">
      <rect
         x="100"
         y="110"
         width="40"
         style="fill:url(#linearGradient3173);stroke:none"
         rx="3"
         ry="3"
         height="40"
         id="rect66" />
      <rect
         x="100"
         y="110"
         width="40"
         style="fill:none;stroke:#000000;stroke-width:0.5"
         rx="3"
         ry="3"
         height="40"
         id="rect68" />
      <rect
         x="100"
         y="110"
         width="40"
         style="fill:url(#linearGradient2);stroke:none"
         rx="3"
         ry="3"
         height="40"
         id="rect70" />
      <rect
         x="100"
         y="110"
         width="40"
         style="fill:none;stroke:#000000;stroke-width:0.5"
         rx="3"
         ry="3"
         height="40"
         id="rect72" />
    </g>
    <g
       style="font-size:11px;font-family:sans-serif"
       transform="translate(17,83)"
       id="g74">
      <path
         d="m 1.3594,10.0938 1.7812,0 0,-6.125 -1.9375,0.3906 0,-0.9844 1.9219,-0.3906 1.0938,0 0,7.1094 1.7656,0 0,0.9062 -4.625,0 0,-0.9062 z"
         style="stroke:none"
         id="path76"
         clip-path="url(#clipPath1)"
         inkscape:connector-curvature="0" />
    </g>
    <g
       transform="translate(-100,-40)"
       id="g78">
      <polygon
         style="stroke:none"
         points="140,126 148,130 140,134 "
         id="polygon80" />
      <polygon
         style="fill:none;stroke-width:0.5"
         points="140,126 148,130 140,134 "
         id="polygon82" />
    </g>
    <g
       style="fill:url(#linearGradient3181);stroke:url(#linearGradient3183)"
       transform="translate(-100,-40)"
       id="g84">
      <rect
         x="180"
         y="110"
         width="80"
         style="fill:url(#linearGradient3179);stroke:none"
         rx="6"
         ry="6"
         height="40"
         id="rect86" />
      <rect
         x="180"
         y="110"
         width="80"
         style="fill:none;stroke:#000000;stroke-width:0.5"
         rx="6"
         ry="6"
         height="40"
         id="rect88" />
      <rect
         x="180"
         y="110"
         width="80"
         style="fill:url(#linearGradient4);stroke:none"
         rx="6"
         ry="6"
         height="40"
         id="rect90" />
      <rect
         x="180"
         y="110"
         width="80"
         style="fill:none;stroke:#000000;stroke-width:0.5"
         rx="6"
         ry="6"
         height="40"
         id="rect92" />
    </g>
    <g
       style="font-size:11px;font-family:sans-serif"
       transform="translate(77,67)"
       id="g94">
      <path
         d="M 11.0312,9.9844 8.8594,12.9062 11.1562,16 9.9844,16 8.2344,13.6406 6.4844,16 5.3125,16 7.6562,12.8594 5.5156,9.9844 l 1.1719,0 1.5937,2.1406 1.5938,-2.1406 1.1562,0 z m 5.4786,0.9062 0,-3.25 0.9843,0 0,8.3594 -0.9843,0 0,-0.9062 q -0.3125,0.5468 -0.7891,0.8046 -0.4766,0.2578 -1.1484,0.2578 -1.0782,0 -1.7657,-0.8671 Q 12.1191,14.4219 12.1191,13 q 0,-1.4219 0.6875,-2.2891 0.6875,-0.8671 1.7657,-0.8671 0.6718,0 1.1484,0.2578 0.4766,0.2578 0.7891,0.789 z M 13.1348,13 q 0,1.0938 0.4531,1.7109 0.4531,0.6172 1.2344,0.6172 0.7812,0 1.2343,-0.6172 0.4532,-0.6171 0.4532,-1.7109 0,-1.0938 -0.4532,-1.7109 -0.4531,-0.6172 -1.2343,-0.6172 -0.7813,0 -1.2344,0.6172 Q 13.1348,11.9062 13.1348,13 z"
         style="stroke:none"
         id="path96"
         clip-path="url(#clipPath2)"
         inkscape:connector-curvature="0" />
      <path
         d="m 27.1719,11 6.875,0 0,0.9062 -6.875,0 0,-0.9062 z m 0,2.2031 6.875,0 0,0.9063 -6.875,0 0,-0.9063 z"
         style="stroke:none"
         id="path98"
         clip-path="url(#clipPath2)"
         inkscape:connector-curvature="0" />
      <path
         d="m 46.7656,9.0469 -1.4844,4 2.9532,0 -1.4688,-4 z m -0.625,-1.0625 1.2344,0 3.0625,8.0156 -1.125,0 -0.7344,-2.0625 -3.625,0 L 44.2344,16 43.0938,16 46.1406,7.9844 z m 10.4156,2 -2.1719,2.9218 2.2969,3.0938 -1.1719,0 -1.75,-2.3594 -1.75,2.3594 -1.1719,0 2.3438,-3.1406 -2.1407,-2.875 1.1719,0 1.5938,2.1406 1.5937,-2.1406 1.1563,0 z m 5.541,-0.875 0,2.9844 2.9843,0 0,0.9218 -2.9843,0 0,2.9844 -0.9063,0 0,-2.9844 -2.9844,0 0,-0.9218 2.9844,0 0,-2.9844 0.9063,0 z m 6.3261,3.0625 0,2.9375 1.7344,0 q 0.875,0 1.2969,-0.3594 0.4219,-0.3594 0.4219,-1.1094 0,-0.75 -0.4219,-1.1094 -0.4219,-0.3593 -1.2969,-0.3593 l -1.7344,0 z m 0,-3.2969 0,2.4219 1.5938,0 q 0.7969,0 1.1875,-0.3047 0.3906,-0.3047 0.3906,-0.9141 0,-0.6093 -0.3906,-0.9062 Q 70.814,8.875 70.0171,8.875 l -1.5938,0 z m -1.0937,-0.8906 2.7656,0 q 1.25,0 1.9219,0.5156 0.6719,0.5156 0.6719,1.4688 0,0.7343 -0.3438,1.164 -0.3437,0.4297 -1.0156,0.5391 0.7969,0.1719 1.2422,0.7187 0.4453,0.5469 0.4453,1.3594 0,1.0781 -0.7266,1.6641 Q 71.564,16 70.2046,16 l -2.875,0 0,-8.0156 z m 7.4058,5.6406 0,-3.6406 0.9843,0 0,3.6094 q 0,0.8437 0.336,1.2734 0.3359,0.4297 0.9922,0.4297 0.8125,0 1.2734,-0.5078 0.4609,-0.5079 0.4609,-1.3985 l 0,-3.4062 0.9844,0 0,6.0156 -0.9844,0 0,-0.9219 q -0.3593,0.5469 -0.8359,0.8125 -0.4766,0.2656 -1.1016,0.2656 -1.0312,0 -1.5703,-0.6484 -0.539,-0.6484 -0.539,-1.8828 z m 2.4843,-3.7812 0,0 z"
         style="stroke:none"
         id="path100"
         clip-path="url(#clipPath2)"
         inkscape:connector-curvature="0" />
      <path
         d="m 15.5469,38.5625 q -0.4219,1.0781 -0.8203,1.3984 -0.3985,0.3203 -1.0704,0.3203 l -0.7812,0 0,-0.8124 0.5781,0 q 0.4063,0 0.6328,-0.1954 0.2266,-0.1953 0.4922,-0.914 l 0.1875,-0.4532 -2.4375,-5.9218 1.0469,0 1.875,4.7031 1.8906,-4.7031 1.0469,0 -2.6406,6.5781 z"
         style="stroke:none"
         id="path102"
         clip-path="url(#clipPath2)"
         inkscape:connector-curvature="0" />
      <path
         d="m 27.1719,33 6.875,0 0,0.9062 -6.875,0 0,-0.9062 z m 0,2.2031 6.875,0 0,0.9063 -6.875,0 0,-0.9063 z"
         style="stroke:none"
         id="path104"
         clip-path="url(#clipPath2)"
         inkscape:connector-curvature="0" />
      <path
         d="m 50.0781,30.5938 0,1.1562 q -0.5469,-0.5156 -1.164,-0.7656 -0.6172,-0.25 -1.3203,-0.25 -1.375,0 -2.1016,0.8359 -0.7266,0.8359 -0.7266,2.4297 0,1.5781 0.7266,2.4219 0.7266,0.8437 2.1016,0.8437 0.7031,0 1.3203,-0.25 0.6171,-0.25 1.164,-0.7656 l 0,1.125 q -0.5625,0.3906 -1.1953,0.5859 -0.6328,0.1953 -1.3516,0.1953 -1.8124,0 -2.8593,-1.1171 Q 43.625,35.9219 43.625,34 q 0,-1.9375 1.0469,-3.0547 1.0469,-1.1172 2.8593,-1.1172 0.7188,0 1.3594,0.1953 0.6406,0.1954 1.1875,0.5704 z M 56.7119,31.9844 54.54,34.9062 56.8369,38 55.665,38 53.915,35.6406 52.165,38 l -1.1718,0 2.3437,-3.1406 -2.1406,-2.875 1.1719,0 1.5937,2.1406 1.5938,-2.1406 1.1562,0 z m 5.541,-0.875 0,2.9844 2.9844,0 0,0.9218 -2.9844,0 0,2.9844 -0.9062,0 0,-2.9844 -2.9844,0 0,-0.9218 2.9844,0 0,-2.9844 0.9062,0 z m 6.3262,-0.2344 0,6.2344 1.2969,0 q 1.6719,0 2.4375,-0.75 0.7656,-0.75 0.7656,-2.375 0,-1.6094 -0.7656,-2.3594 -0.7656,-0.75 -2.4375,-0.75 l -1.2969,0 z m -1.0937,-0.8906 2.2343,0 q 2.3282,0 3.4219,0.9687 1.0938,0.9688 1.0938,3.0313 0,2.0781 -1.1016,3.0468 Q 72.0322,38 69.7197,38 l -2.2343,0 0,-8.0156 z m 8.3295,5.6406 0,-3.6406 0.9844,0 0,3.6094 q 0,0.8437 0.336,1.2734 0.3359,0.4297 0.9921,0.4297 0.8125,0 1.2735,-0.5078 0.4609,-0.5079 0.4609,-1.3985 l 0,-3.4062 0.9844,0 0,6.0156 -0.9844,0 0,-0.9219 q -0.3594,0.5469 -0.8359,0.8125 -0.4766,0.2656 -1.1016,0.2656 -1.0312,0 -1.5703,-0.6484 -0.5391,-0.6484 -0.5391,-1.8828 z m 2.4844,-3.7812 0,0 z"
         style="stroke:none"
         id="path106"
         clip-path="url(#clipPath2)"
         inkscape:connector-curvature="0" />
    </g>
    <g
       transform="translate(-100,-40)"
       id="g108">
      <polygon
         style="stroke:none"
         points="172,126 180,130 172,134 "
         id="polygon110" />
      <polygon
         style="fill:none;stroke-width:0.5"
         points="172,126 180,130 172,134 "
         id="polygon112" />
    </g>
    <g
       transform="translate(-100,-40)"
       id="g114">
      <polygon
         style="stroke:none"
         points="260,126 268,130 260,134 "
         id="polygon116" />
      <polygon
         style="fill:none;stroke-width:0.5"
         points="260,126 268,130 260,134 "
         id="polygon118" />
    </g>
    <g
       style="fill:url(#linearGradient3187);stroke:url(#linearGradient3189)"
       transform="translate(-100,-40)"
       id="g120">
      <rect
         x="300"
         y="110"
         width="90"
         style="fill:url(#linearGradient3185);stroke:none"
         rx="7"
         ry="7"
         height="40"
         id="rect122" />
      <rect
         x="300"
         y="110"
         width="90"
         style="fill:none;stroke:#000000;stroke-width:0.5"
         rx="7"
         ry="7"
         height="40"
         id="rect124" />
      <rect
         x="300"
         y="110"
         width="90"
         style="fill:url(#linearGradient6);stroke:none"
         rx="7"
         ry="7"
         height="40"
         id="rect126" />
      <rect
         x="300"
         y="110"
         width="90"
         style="fill:none;stroke:#000000;stroke-width:0.5"
         rx="7"
         ry="7"
         height="40"
         id="rect128" />
    </g>
    <g
       style="font-size:11px;font-family:sans-serif"
       transform="translate(206,76)"
       id="g130">
      <path
         d="m -0.0312,2.9844 6.7812,0 0,0.9062 -2.8438,0 0,7.1094 -1.0937,0 0,-7.1094 -2.8437,0 0,-0.9062 z m 10.1254,2.6875 q -0.7968,0 -1.2578,0.625 Q 8.3755,6.9219 8.3755,8 q 0,1.0781 0.4531,1.6953 0.4531,0.6172 1.2656,0.6172 0.7813,0 1.2422,-0.6172 0.461,-0.6172 0.461,-1.6953 0,-1.0781 -0.461,-1.7031 -0.4609,-0.625 -1.2422,-0.625 z m 0,-0.8281 q 1.2813,0 2.0157,0.8359 0.7343,0.8359 0.7343,2.3203 0,1.4688 -0.7343,2.3125 -0.7344,0.8437 -2.0157,0.8437 -1.2968,0 -2.0312,-0.8437 Q 7.3286,9.4688 7.3286,8 7.3286,6.5156 8.063,5.6797 8.7974,4.8438 10.0942,4.8438 z m 7.3204,0.1406 0.9843,0 1.2344,4.6875 1.2344,-4.6875 1.1562,0 1.2344,4.6875 1.2344,-4.6875 0.9844,0 L 23.9146,11 22.7427,11 21.4458,6.0625 20.1489,11 18.9771,11 17.4146,4.9844 z m 11.9028,0.6875 q -0.7969,0 -1.2578,0.625 -0.461,0.625 -0.461,1.7031 0,1.0781 0.4532,1.6953 0.4531,0.6172 1.2656,0.6172 0.7812,0 1.2422,-0.6172 Q 31.0205,9.0781 31.0205,8 q 0,-1.0781 -0.4609,-1.7031 -0.461,-0.625 -1.2422,-0.625 z m 0,-0.8281 q 1.2812,0 2.0156,0.8359 0.7344,0.8359 0.7344,2.3203 0,1.4688 -0.7344,2.3125 -0.7344,0.8437 -2.0156,0.8437 -1.2969,0 -2.0313,-0.8437 Q 26.5518,9.4688 26.5518,8 q 0,-1.4844 0.7343,-2.3203 0.7344,-0.8359 2.0313,-0.8359 z M 37.188,5.9062 Q 37.0317,5.8125 36.8364,5.7656 36.6411,5.7188 36.4067,5.7188 q -0.8437,0 -1.289,0.5468 -0.4453,0.5469 -0.4453,1.5625 l 0,3.1719 -1,0 0,-6.0156 1,0 0,0.9375 q 0.2968,-0.5469 0.7968,-0.8125 0.5,-0.2656 1.2188,-0.2656 0.1094,0 0.2266,0.0078 0.1171,0.0078 0.2734,0.039 l 0,1.0156 z m 1.0068,-3.2656 1,0 0,4.9375 2.9375,-2.5937 1.2656,0 -3.1875,2.8125 3.3282,3.2031 -1.2969,0 -3.0469,-2.9375 0,2.9375 -1,0 0,-8.3594 z m 10.2451,2.5156 0,0.9376 Q 48.0181,5.875 47.5649,5.7734 47.1118,5.6719 46.6274,5.6719 q -0.7343,0 -1.1015,0.2265 -0.3672,0.2266 -0.3672,0.6641 0,0.3437 0.2656,0.5391 0.2656,0.1953 1.0625,0.3828 l 0.3281,0.0781 q 1.0625,0.2187 1.5,0.6328 0.4375,0.4141 0.4375,1.1485 0,0.8281 -0.6562,1.3203 -0.6563,0.4921 -1.8281,0.4921 -0.4844,0 -1.0078,-0.0937 -0.5235,-0.0937 -1.1016,-0.2813 l 0,-1.0156 q 0.5469,0.2813 1.0781,0.4219 0.5313,0.1406 1.0625,0.1406 0.6875,0 1.0625,-0.2422 0.375,-0.2421 0.375,-0.664 0,-0.4063 -0.2656,-0.625 Q 47.2056,8.5781 46.2837,8.3906 L 45.9399,8.2969 Q 45.0181,8.1094 44.6118,7.7109 44.2056,7.3125 44.2056,6.6094 q 0,-0.8438 0.6015,-1.3047 0.6016,-0.4609 1.711,-0.4609 0.5468,0 1.0312,0.0781 Q 48.0337,5 48.4399,5.1562 z m 2.856,4.9376 0,3.1874 -1,0 0,-8.2968 1,0 0,0.9062 q 0.2969,-0.5312 0.7734,-0.789 0.4766,-0.2578 1.1485,-0.2578 1.0937,0 1.7734,0.8671 0.6797,0.8672 0.6797,2.2891 0,1.4219 -0.6797,2.2891 -0.6797,0.8671 -1.7734,0.8671 -0.6719,0 -1.1485,-0.2578 -0.4765,-0.2578 -0.7734,-0.8046 z M 54.6553,8 q 0,-1.0938 -0.4532,-1.7109 -0.4531,-0.6172 -1.2343,-0.6172 -0.7813,0 -1.2266,0.6172 Q 51.2959,6.9062 51.2959,8 q 0,1.0938 0.4453,1.7109 0.4453,0.6172 1.2266,0.6172 0.7812,0 1.2343,-0.6172 Q 54.6553,9.0938 54.6553,8 z m 5.3886,-0.0312 q -1.1875,0 -1.6484,0.2812 -0.4609,0.2812 -0.4609,0.9375 0,0.5156 0.3437,0.8281 0.3438,0.3125 0.9375,0.3125 0.8281,0 1.3203,-0.5859 0.4922,-0.586 0.4922,-1.5391 l 0,-0.2343 -0.9844,0 z m 1.9688,-0.4063 0,3.4375 -0.9844,0 0,-0.9062 q -0.3281,0.5468 -0.8359,0.8046 -0.5078,0.2578 -1.2422,0.2578 -0.9219,0 -1.4688,-0.5156 -0.5468,-0.5156 -0.5468,-1.3906 0,-1.0156 0.6797,-1.5312 0.6796,-0.5157 2.039,-0.5157 l 1.375,0 0,-0.0937 q 0,-0.6875 -0.4453,-1.0625 -0.4453,-0.375 -1.2578,-0.375 -0.5156,0 -1.0078,0.125 -0.4922,0.125 -0.9453,0.375 l 0,-0.9063 q 0.5468,-0.2187 1.0625,-0.3203 0.5156,-0.1015 0.9843,-0.1015 1.3125,0 1.9532,0.6718 0.6406,0.6719 0.6406,2.0469 z m 6.3657,-2.3437 0,0.9218 Q 67.9722,5.9062 67.5503,5.7891 67.1284,5.6719 66.6909,5.6719 q -0.9531,0 -1.4844,0.6093 Q 64.6753,6.8906 64.6753,8 q 0,1.0938 0.5312,1.7031 0.5313,0.6094 1.4844,0.6094 0.4375,0 0.8594,-0.1094 0.4219,-0.1093 0.8281,-0.3437 l 0,0.9062 q -0.4062,0.2032 -0.8515,0.2969 -0.4454,0.0937 -0.9454,0.0937 -1.3593,0 -2.1562,-0.8515 Q 63.6284,9.4531 63.6284,8 q 0,-1.4688 0.8047,-2.3125 0.8047,-0.8437 2.2109,-0.8437 0.4688,0 0.8985,0.0937 0.4297,0.0937 0.8359,0.2813 z m 6.876,2.5312 0,0.4844 -4.5469,0 q 0.0625,1.0156 0.6094,1.5468 0.5469,0.5313 1.5312,0.5313 0.5782,0 1.1094,-0.1406 0.5313,-0.1407 1.0625,-0.4063 l 0,0.9219 q -0.5312,0.2344 -1.0937,0.3516 -0.5625,0.1171 -1.125,0.1171 -1.4532,0 -2.2891,-0.8359 -0.8359,-0.8359 -0.8359,-2.2734 0,-1.4688 0.7968,-2.336 0.7969,-0.8671 2.1563,-0.8671 1.2031,0 1.9141,0.7812 0.7109,0.7812 0.7109,2.125 z m -1,-0.2969 q 0,-0.8125 -0.4453,-1.2969 -0.4453,-0.4843 -1.1797,-0.4843 -0.8281,0 -1.3203,0.4687 -0.4922,0.4688 -0.5703,1.3125 l 3.5156,0 z"
         style="stroke:none"
         id="path132"
         clip-path="url(#clipPath3)"
         inkscape:connector-curvature="0" />
      <path
         d="m -0.0156,16.9844 1.1562,0 2.2344,3.2968 2.2031,-3.2968 1.1563,0 -2.8282,4.2031 0,3.8125 -1.0937,0 0,-3.8125 -2.8281,-4.2031 z m 11.1845,-0.3438 2.2657,0 0,0.7656 -1.2813,0 0,8.2813 1.2813,0 0,0.7656 -2.2657,0 0,-9.8125 z m 4.6978,7.4532 1.7812,0 0,-6.125 -1.9375,0.3906 0,-0.9844 1.9219,-0.3906 1.0938,0 0,7.1094 1.7656,0 0,0.9062 -4.625,0 0,-0.9062 z m 7.7485,0 3.7813,0 0,0.9062 -5.0781,0 0,-0.9062 q 0.6093,-0.6407 1.6796,-1.7188 1.0704,-1.0781 1.336,-1.3906 0.5156,-0.5938 0.7265,-1 0.211,-0.4063 0.211,-0.7969 0,-0.6406 -0.4453,-1.0391 -0.4453,-0.3984 -1.1797,-0.3984 -0.5,0 -1.0703,0.1797 -0.5703,0.1797 -1.211,0.5391 l 0,-1.0938 q 0.6563,-0.2656 1.2266,-0.4062 0.5703,-0.1407 1.0391,-0.1407 1.25,0 1.9921,0.625 0.7422,0.625 0.7422,1.6719 0,0.5 -0.1875,0.9375 -0.1875,0.4375 -0.6718,1.0469 -0.1407,0.1562 -0.8594,0.8984 -0.7188,0.7422 -2.0313,2.086 z m 8.3892,-2.9063 q -0.7813,0 -1.2188,0.4141 -0.4375,0.414 -0.4375,1.1484 0,0.7188 0.4375,1.1328 0.4375,0.4141 1.2188,0.4141 0.7656,0 1.2109,-0.4141 0.4453,-0.414 0.4453,-1.1328 0,-0.7344 -0.4375,-1.1484 -0.4375,-0.4141 -1.2187,-0.4141 z m -1.0938,-0.4531 q -0.6875,-0.1719 -1.0781,-0.6485 -0.3906,-0.4765 -0.3906,-1.164 0,-0.9688 0.6797,-1.5313 0.6797,-0.5625 1.8828,-0.5625 1.1875,0 1.875,0.5625 0.6875,0.5625 0.6875,1.5313 0,0.6875 -0.3906,1.164 -0.3907,0.4766 -1.0782,0.6485 0.7813,0.1718 1.2188,0.7031 0.4375,0.5313 0.4375,1.3125 0,1.1562 -0.7109,1.7812 -0.711,0.625 -2.0391,0.625 -1.3281,0 -2.0391,-0.625 -0.7109,-0.625 -0.7109,-1.7812 0,-0.7812 0.4375,-1.3125 0.4375,-0.5313 1.2187,-0.7031 z M 30.52,19.0156 q 0,0.625 0.3906,0.9766 0.3907,0.3516 1.0938,0.3516 0.6875,0 1.0859,-0.3516 0.3985,-0.3516 0.3985,-0.9766 0,-0.625 -0.3985,-0.9765 -0.3984,-0.3516 -1.0859,-0.3516 -0.7031,0 -1.0938,0.3516 -0.3906,0.3515 -0.3906,0.9765 z m 8.3267,-2.375 0,9.8125 -2.2813,0 0,-0.7656 1.2969,0 0,-8.2813 -1.2969,0 0,-0.7656 2.2813,0 z"
         style="stroke:none"
         id="path134"
         clip-path="url(#clipPath3)"
         inkscape:connector-curvature="0" />
    </g>
    <g
       transform="translate(-100,-40)"
       id="g136">
      <polygon
         style="stroke:none"
         points="292,126 300,130 292,134 "
         id="polygon138" />
      <polygon
         style="fill:none;stroke-width:0.5"
         points="292,126 300,130 292,134 "
         id="polygon140" />
    </g>
    <g
       style="fill:#ff0000;stroke:#ff0000"
       transform="matrix(0,1,-1,0,346,-274)"
       id="g142">
      <polygon
         style="stroke:none"
         points="336,102 344,106 336,110 "
         id="polygon144" />
      <polygon
         style="fill:none;stroke-width:0.5"
         points="336,102 344,106 336,110 "
         id="polygon146" />
    </g>
    <g
       style="fill:url(#linearGradient3193);stroke:url(#linearGradient3195)"
       transform="translate(-100,-40)"
       id="g148">
      <rect
         x="320"
         y="40"
         width="40"
         style="fill:url(#linearGradient3191);stroke:none"
         rx="3"
         ry="3"
         height="40"
         id="rect150" />
      <rect
         x="320"
         y="40"
         width="40"
         style="fill:none;stroke:#000000;stroke-width:0.5"
         rx="3"
         ry="3"
         height="40"
         id="rect152" />
    </g>
    <g
       transform="matrix(0,1.1801356,-1.1801356,0,260.09739,0.96495408)"
       style="fill:#cc0000;stroke:#cc0000;stroke-width:0.92439997;stroke-linecap:round;stroke-linejoin:round;stroke-miterlimit:4"
       id="g154">
      <path
         d="m 31.161,16.911 c 0.0439,5.3561 -2.7884,10.3243 -7.4198,13.0151 -4.6313,2.6908 -10.3501,2.6908 -14.9814,0 C 4.1284,27.2353 1.2961,22.2671 1.34,16.911 1.2961,11.5549 4.1284,6.5867 8.7598,3.8959 c 4.6313,-2.6908 10.3501,-2.6908 14.9814,0 4.6314,2.6908 7.4637,7.659 7.4198,13.0151 z"
         style="fill:none"
         id="path156"
         clip-path="url(#clipPath4)"
         inkscape:connector-curvature="0" />
    </g>
    <g
       transform="matrix(0,1.5411,-1.5411,0,266.3079,-2.6789)"
       style="stroke-width:0.92439997;stroke-linecap:round;stroke-linejoin:round;stroke-miterlimit:4"
       id="g158">
      <path
         d="m 16.406,17.281 c 0.004,0.438 -0.2275,0.8445 -0.6062,1.0647 -0.3787,0.2202 -0.8464,0.2202 -1.2251,0 -0.3787,-0.2202 -0.6102,-0.6267 -0.6062,-1.0647 -0.004,-0.438 0.2275,-0.8445 0.6062,-1.0647 0.3787,-0.2202 0.8464,-0.2202 1.2251,0 0.3787,0.2202 0.6102,0.6267 0.6062,1.0647 z"
         style="fill-rule:evenodd;stroke:none"
         id="path160"
         clip-path="url(#clipPath5)"
         inkscape:connector-curvature="0" />
      <path
         d="m 16.406,17.281 c 0.004,0.438 -0.2275,0.8445 -0.6062,1.0647 -0.3787,0.2202 -0.8464,0.2202 -1.2251,0 -0.3787,-0.2202 -0.6102,-0.6267 -0.6062,-1.0647 -0.004,-0.438 0.2275,-0.8445 0.6062,-1.0647 0.3787,-0.2202 0.8464,-0.2202 1.2251,0 0.3787,0.2202 0.6102,0.6267 0.6062,1.0647 z"
         style="fill:none;stroke-width:0.70789999"
         id="path162"
         clip-path="url(#clipPath5)"
         inkscape:connector-curvature="0" />
    </g>
    <g
       transform="matrix(0,0.7433,-0.7433,0,256.5431,2.7549)"
       style="stroke-width:2.93530011;stroke-linecap:round;stroke-miterlimit:4"
       id="g164">
      <path
         d="M 22.177,20.718 13.156,13.14"
         style="fill:none"
         id="path166"
         clip-path="url(#clipPath6)"
         inkscape:connector-curvature="0" />
    </g>
    <g
       transform="matrix(0,0.7433,-0.7433,0,256.5431,2.7549)"
       style="stroke-width:2.93530011;stroke-linecap:round;stroke-miterlimit:4"
       id="g168">
      <path
         d="m 19.409,29.777 2.96,-4.4933"
         style="fill:none"
         id="path170"
         clip-path="url(#clipPath6)"
         inkscape:connector-curvature="0" />
    </g>
    <g
       style="fill:#ff0000;stroke:#ff0000"
       transform="matrix(0,1,-1,0,324,-296)"
       id="g172">
      <polygon
         style="stroke:none"
         points="336,80 344,84 336,88 "
         id="polygon174" />
      <polygon
         style="fill:none;stroke-width:0.5"
         points="336,80 344,84 336,88 "
         id="polygon176" />
    </g>
    <g
       transform="translate(-100,-40)"
       id="g178">
      <path
         style="fill:none"
         d="m 340,86.5 0,17"
         id="path180"
         inkscape:connector-curvature="0" />
    </g>
    <g
       transform="translate(-100,-40)"
       id="g182">
      <path
         style="fill:none"
         d="m 268.5,130 23,0"
         id="path184"
         inkscape:connector-curvature="0" />
    </g>
    <g
       transform="translate(-100,-40)"
       id="g186">
      <path
         style="fill:none"
         d="m 148.5,130 11.5,0 11.5,0"
         id="path188"
         inkscape:connector-curvature="0" />
    </g>
    <g
       style="font-size:14px;font-family:sans-serif"
       transform="translate(46,42)"
       id="g190">
      <path
         d="m 0.7656,10.7656 q 1.4375,1.2969 3.1875,1.2969 1.7969,0 2.6172,-0.9687 0.8203,-0.9688 0.9609,-2.6094 l -5.4531,0 0,-1.1563 5.4531,0 Q 7.3906,5.6875 6.5703,4.7188 5.75,3.75 3.9531,3.75 q -1.75,0 -3.1875,1.2812 l 0,-1.4531 q 1.4219,-0.9687 3.2656,-0.9687 2.2969,0 3.625,1.4218 1.3282,1.4219 1.3282,3.875 0,2.4532 -1.3282,3.875 -1.3281,1.4219 -3.625,1.4219 -1.8281,0 -3.2656,-0.9843 l 0,-1.4532 z m 9.416,-5.4218 7.3438,0 0,1 -3.0469,0 0,6.6562 -1.25,0 0,-6.6562 -3.0469,0 0,-1 z m 12.5459,3.8124 q -1.5156,0 -2.1093,0.3438 -0.5938,0.3438 -0.5938,1.1875 0,0.6719 0.4453,1.0625 0.4453,0.3906 1.1953,0.3906 1.0469,0 1.6797,-0.7422 0.6328,-0.7422 0.6328,-1.9609 l 0,-0.2813 -1.25,0 z m 2.5157,-0.5312 0,4.375 -1.2657,0 0,-1.1562 q -0.4218,0.6874 -1.0703,1.0234 -0.6484,0.3359 -1.5703,0.3359 -1.1719,0 -1.8672,-0.664 -0.6953,-0.6641 -0.6953,-1.7735 0,-1.2812 0.8672,-1.9375 0.8672,-0.6562 2.5703,-0.6562 l 1.7656,0 0,-0.125 q 0,-0.875 -0.5703,-1.3516 -0.5703,-0.4765 -1.6015,-0.4765 -0.6563,0 -1.2813,0.164 -0.625,0.1641 -1.1875,0.4766 l 0,-1.1719 q 0.6875,-0.2656 1.336,-0.3984 0.6484,-0.1329 1.2578,-0.1329 1.6718,0 2.4922,0.8594 0.8203,0.8594 0.8203,2.6094 z m 1.7822,4.375 0,-1.0469 q 1.25,-0.1875 1.625,-1.0469 0.4687,-1.2187 0.4687,-4.3124 l 0,-1.25 5.1719,0 0,7.6562 -1.25,0 0,-6.6562 -2.6562,0 0,0.7656 q 0,2.9531 -0.6094,4.2812 -0.6406,1.4063 -2.75,1.6094 z M 39.7393,6.2188 q -1,0 -1.5938,0.789 -0.5937,0.7891 -0.5937,2.1641 0,1.375 0.5859,2.164 0.5859,0.7891 1.6016,0.7891 1.0156,0 1.6015,-0.7891 0.586,-0.789 0.586,-2.164 0,-1.3594 -0.586,-2.1563 -0.5859,-0.7968 -1.6015,-0.7968 z m 0,-1.0626 q 1.6406,0 2.5781,1.0704 0.9375,1.0703 0.9375,2.9453 0,1.8906 -0.9375,2.9609 -0.9375,1.0703 -2.5781,1.0703 -1.6407,0 -2.5782,-1.0703 -0.9375,-1.0703 -0.9375,-2.9609 0,-1.875 0.9375,-2.9453 0.9375,-1.0704 2.5782,-1.0704 z m 5.5498,0.1876 1.2656,0 0,3.125 4.0937,0 0,-3.125 1.25,0 0,7.6562 -1.25,0 0,-3.5312 -4.0937,0 0,3.5312 -1.2656,0 0,-7.6562 z m 9.1533,0 1.2656,0 0,3.125 4.0938,0 0,-3.125 1.25,0 0,7.6562 -1.25,0 0,-3.5312 -4.0938,0 0,3.5312 -1.2656,0 0,-7.6562 z M 67.127,9.1562 q -1.5157,0 -2.1094,0.3438 -0.5938,0.3438 -0.5938,1.1875 0,0.6719 0.4453,1.0625 0.4454,0.3906 1.1954,0.3906 1.0468,0 1.6796,-0.7422 0.6329,-0.7422 0.6329,-1.9609 l 0,-0.2813 -1.25,0 z m 2.5156,-0.5312 0,4.375 -1.2656,0 0,-1.1562 q -0.4219,0.6874 -1.0704,1.0234 -0.6484,0.3359 -1.5703,0.3359 -1.1718,0 -1.8672,-0.664 -0.6953,-0.6641 -0.6953,-1.7735 0,-1.2812 0.8672,-1.9375 0.8672,-0.6562 2.5703,-0.6562 l 1.7657,0 0,-0.125 q 0,-0.875 -0.5704,-1.3516 -0.5703,-0.4765 -1.6015,-0.4765 -0.6563,0 -1.2813,0.164 -0.625,0.1641 -1.1875,0.4766 l 0,-1.1719 q 0.6875,-0.2656 1.336,-0.3984 0.6484,-0.1329 1.2578,-0.1329 1.6719,0 2.4922,0.8594 0.8203,0.8594 0.8203,2.6094 z m 3.8447,-1.0781 q 0,0.5781 0.4375,0.8984 0.4375,0.3203 1.25,0.3203 l 1.7031,0 0,-2.4218 -1.7031,0 q -0.8125,0 -1.25,0.3203 -0.4375,0.3203 -0.4375,0.8828 z M 71.7061,13 74.0342,9.6406 Q 73.2529,9.4688 72.7217,9 72.1904,8.5312 72.1904,7.5469 q 0,-1.1094 0.7344,-1.6563 0.7344,-0.5468 2.2188,-0.5468 l 3,0 0,7.6562 -1.2657,0 0,-3.2344 -1.5625,0 L 73.0498,13 71.7061,13 z m 13.3408,-7.6562 1.8437,0 2.1719,5.125 2.1875,-5.125 1.8281,0 0,7.6562 -1.2656,0 0,-6.4531 -2.125,4.9843 -1.25,0 -2.125,-4.9843 0,6.4531 -1.2656,0 0,-7.6562 z m 13.5771,0.875 q -1,0 -1.5937,0.789 -0.5938,0.7891 -0.5938,2.1641 0,1.375 0.586,2.164 0.5859,0.7891 1.6015,0.7891 1.0156,0 1.6016,-0.7891 0.5859,-0.789 0.5859,-2.164 0,-1.3594 -0.5859,-2.1563 -0.586,-0.7968 -1.6016,-0.7968 z m 0,-1.0626 q 1.6406,0 2.5781,1.0704 0.9375,1.0703 0.9375,2.9453 0,1.8906 -0.9375,2.9609 -0.9375,1.0703 -2.5781,1.0703 -1.6406,0 -2.5781,-1.0703 -0.9375,-1.0703 -0.9375,-2.9609 0,-1.875 0.9375,-2.9453 0.9375,-1.0704 2.5781,-1.0704 z m 7.3155,6.8438 3.6406,0 0,-5.6562 -2.6406,0 0,0.9687 q 0,2.8125 -0.7969,4.3125 L 105.9395,12 z m -1.8282,0 q 0.625,-0.2812 0.8907,-0.8594 0.6718,-1.4375 0.6718,-4.3437 l 0,-1.4531 5.1719,0 0,6.6562 1.0156,0 0,2.9375 -1.0156,0 0,-1.9375 -6.2031,0 0,1.9375 -1,0 0,-2.9375 0.4687,0 z m 16.3516,-3.1406 0,0.6094 -5.7969,0 q 0.0938,1.2968 0.7891,1.9765 0.6953,0.6797 1.9453,0.6797 0.7344,0 1.4141,-0.1719 0.6796,-0.1719 1.3515,-0.5312 l 0,1.1875 q -0.6875,0.2812 -1.3984,0.4375 -0.711,0.1562 -1.4297,0.1562 -1.8438,0 -2.9141,-1.0703 -1.0703,-1.0703 -1.0703,-2.8828 0,-1.8906 1.0156,-2.9922 1.0157,-1.1016 2.75,-1.1016 1.5469,0 2.4454,0.9922 0.8984,0.9922 0.8984,2.711 z m -1.2656,-0.375 q -0.0157,-1.0313 -0.5782,-1.6485 -0.5625,-0.6171 -1.4843,-0.6171 -1.0625,0 -1.6953,0.6015 -0.6329,0.6016 -0.7266,1.6797 l 4.4844,-0.0156 z m 2.5195,4.5156 0,-1.0469 q 1.25,-0.1875 1.625,-1.0469 0.4687,-1.2187 0.4687,-4.3124 l 0,-1.25 5.1719,0 0,7.6562 -1.25,0 0,-6.6562 -2.6562,0 0,0.7656 q 0,2.9531 -0.6094,4.2812 -0.6406,1.4063 -2.75,1.6094 z m 14.5107,-2.2656 q 0,-0.625 -0.4453,-0.9453 -0.4453,-0.3203 -1.3047,-0.3203 l -1.7968,0 0,2.5312 1.7968,0 q 0.8594,0 1.3047,-0.3281 0.4453,-0.3281 0.4453,-0.9375 z m -4.8125,-5.3906 1.2657,0 0,3.125 1.8437,0 q 1.4688,0 2.2578,0.5546 0.7891,0.5547 0.7891,1.711 0,1.1406 -0.7891,1.7031 Q 135.9932,13 134.5244,13 l -3.1094,0 0,-7.6562 z"
         style="stroke:none"
         id="path192"
         clip-path="url(#clipPath7)"
         inkscape:connector-curvature="0" />
    </g>
  </g>
</svg>
